<svg width="175" height="28" viewBox="0 0 175 28" fill="none" xmlns="http://www.w3.org/2000/svg">
<g filter="url(#filter0_d_242_1026)">
<path d="M5.328 25.056H0V0H15.3L18.432 3.132V13.032L14.256 17.244H5.328V25.056ZM5.328 12.672H11.88L13.14 11.412V4.788H5.328V12.672Z" fill="#E5E3D3"/>
<path d="M28.7421 25.056H23.4141V0H38.4621L41.6301 3.132V12.06L39.1821 14.544L41.7741 17.136V25.056H36.4461V18.036L35.1501 16.776H28.7421V25.056ZM36.3381 11.16V4.356H28.7421V12.42H35.0781L36.3381 11.16Z" fill="#E5E3D3"/>
<path d="M63.5254 25.056H47.1094V0H63.3454V4.788H52.4374V10.476H61.0414V14.58H52.4374V20.232H63.5254V25.056Z" fill="#E5E3D3"/>
<path d="M73.3202 25.056H67.9922V0H83.9042V4.788H73.3202V11.268H81.6722V15.624H73.3202V25.056Z" fill="#E5E3D3"/>
<path d="M104.553 25.056H88.1367V0H104.373V4.788H93.4647V10.476H102.069V14.58H93.4647V20.232H104.553V25.056Z" fill="#E5E3D3"/>
<path d="M106.716 4.788V0H125.22V4.788H118.632V25.056H113.304V4.788H106.716Z" fill="#E5E3D3"/>
<path d="M144.001 25.056H131.509L128.341 21.888V3.132L131.509 0H144.001L147.133 3.132V8.964H141.805V4.788H133.669V20.232H141.805V16.092H147.133V21.888L144.001 25.056Z" fill="#E5E3D3"/>
<path d="M151.98 25.056V0H157.308V10.116H166.992V0H172.32V25.056H166.992V14.724H157.308V25.056H151.98Z" fill="#E5E3D3"/>
</g>
<defs>
<filter id="filter0_d_242_1026" x="0" y="0" width="174.821" height="27.5557" filterUnits="userSpaceOnUse" color-interpolation-filters="sRGB">
<feFlood flood-opacity="0" result="BackgroundImageFix"/>
<feColorMatrix in="SourceAlpha" type="matrix" values="0 0 0 0 0 0 0 0 0 0 0 0 0 0 0 0 0 0 127 0" result="hardAlpha"/>
<feOffset dx="2.5" dy="2.5"/>
<feComposite in2="hardAlpha" operator="out"/>
<feColorMatrix type="matrix" values="0 0 0 0 0.968627 0 0 0 0 0.690196 0 0 0 0 0.0392157 0 0 0 0.5 0"/>
<feBlend mode="normal" in2="BackgroundImageFix" result="effect1_dropShadow_242_1026"/>
<feBlend mode="normal" in="SourceGraphic" in2="effect1_dropShadow_242_1026" result="shape"/>
</filter>
</defs>
</svg>
